<svg width="16" height="16" viewBox="0 0 16 16" fill="none" xmlns="http://www.w3.org/2000/svg">
<path d="M14.2609 16H1.73913C0.765217 16 0 15.2348 0 14.2609V1.73913C0 0.765217 0.765217 0 1.73913 0H14.2609C15.2348 0 16 0.765217 16 1.73913V14.2609C16 15.2348 15.2348 16 14.2609 16ZM8 2.78261C5.11304 2.78261 2.78261 5.11304 2.78261 8C2.78261 10.887 5.11304 13.2174 8 13.2174C10.887 13.2174 13.2174 10.887 13.2174 8C13.2174 5.11304 10.887 2.78261 8 2.78261ZM13.3913 1.04348C12.5217 1.04348 11.8261 1.73913 11.8261 2.6087C11.8261 3.47826 12.5217 4.17391 13.3913 4.17391C14.2609 4.17391 14.9565 3.47826 14.9565 2.6087C14.9565 1.73913 14.2609 1.04348 13.3913 1.04348ZM8 11.8261C5.87826 11.8261 4.17391 10.1217 4.17391 8C4.17391 5.87826 5.87826 4.17391 8 4.17391C10.1217 4.17391 11.8261 5.87826 11.8261 8C11.8261 10.1217 10.1217 11.8261 8 11.8261Z" fill="#A8A8A8"/>
</svg>
