<svg width="18" height="17" viewBox="0 0 18 17" fill="none" xmlns="http://www.w3.org/2000/svg">
<path d="M14.2522 12.3672C13.0112 12.3672 12.0093 13.4047 12.0093 14.6817C12.0093 15.9587 13.0147 16.9963 14.2522 16.9963C15.4897 16.9963 16.4952 15.9587 16.4952 14.6817C16.4952 13.4047 15.4897 12.3672 14.2522 12.3672ZM14.2522 15.6105C13.7565 15.6105 13.3558 15.1969 13.3558 14.6854C13.3558 14.1738 13.7565 13.7603 14.2522 13.7603C14.7479 13.7603 15.1487 14.1738 15.1487 14.6854C15.1487 15.1933 14.7479 15.6105 14.2522 15.6105Z" fill="#8B8B8B"/>
<path d="M17.8559 3.41741C17.7293 3.25053 17.5324 3.14895 17.325 3.15258H4.15547L3.55078 0.533291C3.47695 0.221297 3.20625 0 2.89336 0H0.671484C0.302344 0 0 0.311993 0 0.692915C0 1.07384 0.302344 1.38583 0.671484 1.38583H2.3625L4.54922 10.8327C4.62305 11.1447 4.89375 11.366 5.20312 11.366H15.6832C15.9926 11.366 16.2633 11.1483 16.3371 10.8399L17.9754 4.00875C18.0281 3.80559 17.9859 3.58429 17.8559 3.41741ZM15.1629 9.98378H5.74102L4.48242 4.54204H16.4707L15.1629 9.98378Z" fill="#8B8B8B"/>
<path d="M6.10308 12.3672C4.86206 12.3672 3.86011 13.4047 3.86011 14.6817C3.86011 15.9587 4.86558 16.9963 6.10308 16.9963C7.34058 16.9963 8.34604 15.9587 8.34604 14.6817C8.34956 13.4047 7.34409 12.3672 6.10308 12.3672ZM6.10308 15.6105C5.60737 15.6105 5.20659 15.1969 5.20659 14.6854C5.20659 14.1738 5.60737 13.7603 6.10308 13.7603C6.59878 13.7603 6.99956 14.1738 6.99956 14.6854C7.00308 15.1933 6.59878 15.6105 6.10308 15.6105Z" fill="#8B8B8B"/>
</svg>
