<svg width="119" height="20" viewBox="0 0 119 20" fill="none" xmlns="http://www.w3.org/2000/svg">
<path d="M4.56 3.64H0.08V0.999999H12.28V3.64H7.8V15H4.56V3.64ZM23.2495 9.66C23.2495 9.7 23.2295 9.98 23.1895 10.5H15.0495C15.1962 11.1667 15.5429 11.6933 16.0895 12.08C16.6362 12.4667 17.3162 12.66 18.1295 12.66C18.6895 12.66 19.1829 12.58 19.6095 12.42C20.0495 12.2467 20.4562 11.98 20.8295 11.62L22.4895 13.42C21.4762 14.58 19.9962 15.16 18.0495 15.16C16.8362 15.16 15.7629 14.9267 14.8295 14.46C13.8962 13.98 13.1762 13.32 12.6695 12.48C12.1629 11.64 11.9095 10.6867 11.9095 9.62C11.9095 8.56667 12.1562 7.62 12.6495 6.78C13.1562 5.92667 13.8429 5.26667 14.7095 4.8C15.5895 4.32 16.5695 4.08 17.6495 4.08C18.7029 4.08 19.6562 4.30667 20.5095 4.76C21.3629 5.21333 22.0295 5.86667 22.5095 6.72C23.0029 7.56 23.2495 8.54 23.2495 9.66ZM17.6695 6.44C16.9629 6.44 16.3695 6.64 15.8895 7.04C15.4095 7.44 15.1162 7.98667 15.0095 8.68H20.3095C20.2029 8 19.9095 7.46 19.4295 7.06C18.9495 6.64667 18.3629 6.44 17.6695 6.44ZM29.3738 4.08C31.0404 4.08 32.3204 4.48 33.2138 5.28C34.1071 6.06667 34.5538 7.26 34.5538 8.86V15H31.6338V13.66C31.0471 14.66 29.9538 15.16 28.3538 15.16C27.5271 15.16 26.8071 15.02 26.1938 14.74C25.5938 14.46 25.1338 14.0733 24.8138 13.58C24.4938 13.0867 24.3338 12.5267 24.3338 11.9C24.3338 10.9 24.7071 10.1133 25.4538 9.54C26.2138 8.96667 27.3804 8.68 28.9538 8.68H31.4338C31.4338 8 31.2271 7.48 30.8138 7.12C30.4004 6.74667 29.7804 6.56 28.9538 6.56C28.3804 6.56 27.8138 6.65333 27.2538 6.84C26.7071 7.01333 26.2404 7.25333 25.8538 7.56L24.7338 5.38C25.3204 4.96667 26.0204 4.64667 26.8338 4.42C27.6604 4.19333 28.5071 4.08 29.3738 4.08ZM29.1338 13.06C29.6671 13.06 30.1404 12.94 30.5538 12.7C30.9671 12.4467 31.2604 12.08 31.4338 11.6V10.5H29.2938C28.0138 10.5 27.3738 10.92 27.3738 11.76C27.3738 12.16 27.5271 12.48 27.8338 12.72C28.1538 12.9467 28.5871 13.06 29.1338 13.06ZM40.9975 15.16C40.1042 15.16 39.2308 15.0533 38.3775 14.84C37.5242 14.6133 36.8442 14.3333 36.3375 14L37.3775 11.76C37.8575 12.0667 38.4375 12.32 39.1175 12.52C39.7975 12.7067 40.4642 12.8 41.1175 12.8C42.4375 12.8 43.0975 12.4733 43.0975 11.82C43.0975 11.5133 42.9175 11.2933 42.5575 11.16C42.1975 11.0267 41.6442 10.9133 40.8975 10.82C40.0175 10.6867 39.2908 10.5333 38.7175 10.36C38.1442 10.1867 37.6442 9.88 37.2175 9.44C36.8042 9 36.5975 8.37333 36.5975 7.56C36.5975 6.88 36.7908 6.28 37.1775 5.76C37.5775 5.22667 38.1508 4.81333 38.8975 4.52C39.6575 4.22667 40.5508 4.08 41.5775 4.08C42.3375 4.08 43.0908 4.16667 43.8375 4.34C44.5975 4.5 45.2242 4.72667 45.7175 5.02L44.6775 7.24C43.7308 6.70667 42.6975 6.44 41.5775 6.44C40.9108 6.44 40.4108 6.53333 40.0775 6.72C39.7442 6.90667 39.5775 7.14667 39.5775 7.44C39.5775 7.77333 39.7575 8.00667 40.1175 8.14C40.4775 8.27333 41.0508 8.4 41.8375 8.52C42.7175 8.66667 43.4375 8.82667 43.9975 9C44.5575 9.16 45.0442 9.46 45.4575 9.9C45.8708 10.34 46.0775 10.9533 46.0775 11.74C46.0775 12.4067 45.8775 13 45.4775 13.52C45.0775 14.04 44.4908 14.4467 43.7175 14.74C42.9575 15.02 42.0508 15.16 40.9975 15.16ZM54.5425 4.08C55.8758 4.08 56.9492 4.48 57.7625 5.28C58.5892 6.08 59.0025 7.26667 59.0025 8.84V15H55.8825V9.32C55.8825 8.46667 55.6958 7.83333 55.3225 7.42C54.9492 6.99333 54.4092 6.78 53.7025 6.78C52.9158 6.78 52.2892 7.02667 51.8225 7.52C51.3558 8 51.1225 8.72 51.1225 9.68V15H48.0025V0.159999H51.1225V5.36C51.5358 4.94667 52.0358 4.63333 52.6225 4.42C53.2092 4.19333 53.8492 4.08 54.5425 4.08ZM67.0678 15.16C65.9345 15.16 64.9145 14.9267 64.0078 14.46C63.1145 13.98 62.4145 13.32 61.9078 12.48C61.4011 11.64 61.1478 10.6867 61.1478 9.62C61.1478 8.55333 61.4011 7.6 61.9078 6.76C62.4145 5.92 63.1145 5.26667 64.0078 4.8C64.9145 4.32 65.9345 4.08 67.0678 4.08C68.2011 4.08 69.2145 4.32 70.1078 4.8C71.0011 5.26667 71.7011 5.92 72.2078 6.76C72.7145 7.6 72.9678 8.55333 72.9678 9.62C72.9678 10.6867 72.7145 11.64 72.2078 12.48C71.7011 13.32 71.0011 13.98 70.1078 14.46C69.2145 14.9267 68.2011 15.16 67.0678 15.16ZM67.0678 12.6C67.8678 12.6 68.5211 12.3333 69.0278 11.8C69.5478 11.2533 69.8078 10.5267 69.8078 9.62C69.8078 8.71333 69.5478 7.99333 69.0278 7.46C68.5211 6.91333 67.8678 6.64 67.0678 6.64C66.2678 6.64 65.6078 6.91333 65.0878 7.46C64.5678 7.99333 64.3078 8.71333 64.3078 9.62C64.3078 10.5267 64.5678 11.2533 65.0878 11.8C65.6078 12.3333 66.2678 12.6 67.0678 12.6ZM81.4133 4.08C82.4133 4.08 83.3199 4.31333 84.1333 4.78C84.9599 5.23333 85.6066 5.88 86.0733 6.72C86.5399 7.54667 86.7733 8.51333 86.7733 9.62C86.7733 10.7267 86.5399 11.7 86.0733 12.54C85.6066 13.3667 84.9599 14.0133 84.1333 14.48C83.3199 14.9333 82.4133 15.16 81.4133 15.16C80.0399 15.16 78.9599 14.7267 78.1733 13.86V18.88H75.0533V4.24H78.0333V5.48C78.8066 4.54667 79.9333 4.08 81.4133 4.08ZM80.8733 12.6C81.6733 12.6 82.3266 12.3333 82.8333 11.8C83.3533 11.2533 83.6133 10.5267 83.6133 9.62C83.6133 8.71333 83.3533 7.99333 82.8333 7.46C82.3266 6.91333 81.6733 6.64 80.8733 6.64C80.0733 6.64 79.4133 6.91333 78.8933 7.46C78.3866 7.99333 78.1333 8.71333 78.1333 9.62C78.1333 10.5267 78.3866 11.2533 78.8933 11.8C79.4133 12.3333 80.0733 12.6 80.8733 12.6ZM89.9052 15.16C89.3585 15.16 88.8985 14.9733 88.5252 14.6C88.1518 14.2267 87.9652 13.76 87.9652 13.2C87.9652 12.6267 88.1518 12.1667 88.5252 11.82C88.8985 11.46 89.3585 11.28 89.9052 11.28C90.4518 11.28 90.9118 11.46 91.2852 11.82C91.6585 12.1667 91.8452 12.6267 91.8452 13.2C91.8452 13.76 91.6585 14.2267 91.2852 14.6C90.9118 14.9733 90.4518 15.16 89.9052 15.16ZM100.32 4.08C101.32 4.08 102.226 4.31333 103.04 4.78C103.866 5.23333 104.513 5.88 104.98 6.72C105.446 7.54667 105.68 8.51333 105.68 9.62C105.68 10.7267 105.446 11.7 104.98 12.54C104.513 13.3667 103.866 14.0133 103.04 14.48C102.226 14.9333 101.32 15.16 100.32 15.16C98.8395 15.16 97.7129 14.6933 96.9395 13.76V15H93.9595V0.159999H97.0795V5.38C97.8662 4.51333 98.9462 4.08 100.32 4.08ZM99.7795 12.6C100.58 12.6 101.233 12.3333 101.74 11.8C102.26 11.2533 102.52 10.5267 102.52 9.62C102.52 8.71333 102.26 7.99333 101.74 7.46C101.233 6.91333 100.58 6.64 99.7795 6.64C98.9795 6.64 98.3195 6.91333 97.7995 7.46C97.2929 7.99333 97.0395 8.71333 97.0395 9.62C97.0395 10.5267 97.2929 11.2533 97.7995 11.8C98.3195 12.3333 98.9795 12.6 99.7795 12.6ZM118.155 4.24L113.295 15.66C112.802 16.9 112.188 17.7733 111.455 18.28C110.735 18.7867 109.862 19.04 108.835 19.04C108.275 19.04 107.722 18.9533 107.175 18.78C106.628 18.6067 106.182 18.3667 105.835 18.06L106.975 15.84C107.215 16.0533 107.488 16.22 107.795 16.34C108.115 16.46 108.428 16.52 108.735 16.52C109.162 16.52 109.508 16.4133 109.775 16.2C110.042 16 110.282 15.66 110.495 15.18L110.535 15.08L105.875 4.24H109.095L112.115 11.54L115.155 4.24H118.155Z" fill="black"/>
</svg>
