<svg width="22" height="12" viewBox="0 0 22 12" fill="none" xmlns="http://www.w3.org/2000/svg">
<path d="M21.1434 12H18.7397C17.8296 12 17.5495 11.3381 15.9159 9.82206C14.4923 8.56228 13.8622 8.39146 13.5122 8.39146C13.0221 8.39146 12.8821 8.51957 12.8821 9.13879V11.1246C12.8821 11.6584 12.6954 11.9786 11.1551 11.9786C8.61139 11.9786 5.7876 10.5694 3.80395 7.94306C0.816799 4.09964 0 1.21708 0 0.619217C0 0.298932 0.140023 0 0.816799 0H3.22052C3.82729 0 4.06066 0.256228 4.29403 0.854093C5.48422 3.99288 7.46788 6.74733 8.28467 6.74733C8.58806 6.74733 8.72808 6.61922 8.72808 5.91459V2.66904C8.63473 1.17438 7.77126 1.04626 7.77126 0.512456C7.77126 0.213523 8.0513 0 8.37802 0H12.1586C12.6721 0 12.8587 0.256228 12.8587 0.811388V5.18861C12.8587 5.65836 13.0921 5.82918 13.2321 5.82918C13.5355 5.82918 13.7922 5.65836 14.3523 5.14591C16.0793 3.37367 17.3161 0.640569 17.3161 0.640569C17.4795 0.256228 17.8996 0 18.3663 0.0213523H20.77C21.4935 0.0213523 21.6568 0.362989 21.4935 0.83274C21.1901 2.11388 18.2496 5.91459 18.2496 5.91459C17.9929 6.29893 17.8996 6.46975 18.2496 6.8968C18.5063 7.21708 19.3465 7.879 19.9066 8.47687C20.9334 9.54448 21.7269 10.4413 21.9369 11.0605C22.1469 11.6797 21.8202 12 21.1434 12Z" fill="#A8A8A8"/>
</svg>
